<?xml version="1.0" standalone="no"?><!DOCTYPE svg PUBLIC "-//W3C//DTD SVG 1.1//EN" "http://www.w3.org/Graphics/SVG/1.1/DTD/svg11.dtd"><svg t="1695112538256" class="icon" viewBox="0 0 1024 1024" version="1.1" xmlns="http://www.w3.org/2000/svg" p-id="11074" width="128" height="128" xmlns:xlink="http://www.w3.org/1999/xlink"><path d="M741.6 353.6m-214.4 0a214.4 214.4 0 1 0 428.8 0 214.4 214.4 0 1 0-428.8 0Z" fill="#FFCE54" p-id="11075"></path><path d="M384.8 520m-285.6 0a285.6 285.6 0 1 0 571.2 0 285.6 285.6 0 1 0-571.2 0Z" fill="#FFFFFF" p-id="11076"></path><path d="M718.4 591.2m-214.4 0a214.4 214.4 0 1 0 428.8 0 214.4 214.4 0 1 0-428.8 0Z" fill="#FFFFFF" p-id="11077"></path><path d="M361.6 591.2m-285.6 0a285.6 285.6 0 1 0 571.2 0 285.6 285.6 0 1 0-571.2 0Z" fill="#D8EFFC" p-id="11078"></path><path d="M694.4 662.4m-214.4 0a214.4 214.4 0 1 0 428.8 0 214.4 214.4 0 1 0-428.8 0Z" fill="#D8EFFC" p-id="11079"></path><path d="M673.6 876.8H382.4c-24.8 0-44.8-20-44.8-44.8v-5.6c0-24.8 20-44.8 44.8-44.8h291.2c24.8 0 44.8 20 44.8 44.8v5.6c0 24.8-20.8 44.8-44.8 44.8z" fill="#D8EFFC" p-id="11080"></path></svg>